<svg width="721" height="260" viewBox="0 0 721 260" fill="none" xmlns="http://www.w3.org/2000/svg">
<path d="M5.99976 174.501V203.589V255H301V174.127V133H246.83V172.647C246.83 191.183 231.998 206.207 213.706 206.207C195.414 206.207 179 191.183 179 172.647V133H126.418V172.647C126.418 191.183 111.585 206.207 93.2934 206.207C75.0015 206.207 57.9998 191.183 57.9998 172.647V133H30.0749H5.99976V142.458V174.501Z" stroke="#ED1C24" stroke-width="10"/>
<path d="M1.5 60.2451V37.8315V30.999C1.5 14.4322 14.8851 1 31.3937 1H274.606C291.115 1 304.5 14.4322 304.5 30.999L305 60.5V94.5V127.5L244.877 128V67.5489C244.877 50.3515 230.986 36.4111 213.843 36.4111C196.706 36.4111 182.814 50.3515 182.814 67.5489V128H123.192V67.5489C123.192 50.3515 109.294 36.4111 92.157 36.4111C75.02 36.4111 62 50.3026 62 67.5V128L31.3142 128H2L1.5 84.9238V60.2451Z" fill="#ED1C24" stroke="#ED1C24" stroke-width="2"/>
<path d="M259 161.99V166.847C259 183.497 245.567 197 229.003 197C212.433 197 199 183.497 199 166.847V125H259V161.99Z" fill="#00A651" stroke="#00A651" stroke-width="2"/>
<path d="M137 161.99V166.847C137 183.497 123.567 197 106.997 197C90.4265 197 76.9998 183.497 76.9998 166.847V125H137V161.99Z" fill="#00A651" stroke="#00A651" stroke-width="2"/>
<path d="M359.087 49.5H374.139L391.53 106.963L408.861 49.5H422.154L397.913 133.5H385.087L359.087 49.5ZM353 49.5H367.348L369.574 104.886V133.5H353V49.5ZM415.593 49.5H430V133.5H413.485V104.886L415.593 49.5Z" fill="#ED1C24"/>
<path d="M467.373 134.5C462.988 134.5 459.097 133.839 455.695 132.525C452.338 131.21 449.5 129.323 447.164 126.848C444.836 124.337 443.056 121.305 441.832 117.758C440.608 114.204 440 110.151 440 105.591V100.436C440 95.3398 440.593 90.8753 441.772 87.057C442.959 83.1946 444.641 79.949 446.811 77.3202C448.982 74.6988 451.648 72.7455 454.809 71.4679C458.009 70.1608 461.621 69.5 465.653 69.5C469.679 69.5 473.216 70.1608 476.257 71.4679C479.336 72.7455 481.882 74.6767 483.902 77.2614C485.915 79.8094 487.432 82.9817 488.461 86.7633C489.489 90.545 490 94.9507 490 99.9733V107.39H447.052V95.9714H473.711V94.5247C473.711 91.9767 473.434 89.8546 472.878 88.1511C472.33 86.4181 471.458 85.1258 470.272 84.274C469.085 83.4222 467.508 82.9963 465.533 82.9963C463.874 82.9963 462.469 83.3268 461.328 83.9803C460.179 84.6412 459.27 85.6618 458.602 87.057C457.933 88.4448 457.438 90.2585 457.122 92.4981C456.807 94.7009 456.649 97.3445 456.649 100.436V105.591C456.649 108.484 456.904 110.922 457.415 112.89C457.933 114.821 458.677 116.407 459.668 117.641C460.697 118.837 461.936 119.704 463.401 120.247C464.865 120.746 466.562 120.996 468.492 120.996C471.421 120.996 474.042 120.497 476.377 119.491C478.743 118.448 480.755 117.038 482.415 115.261L489.054 125.116C487.905 126.577 486.328 128.045 484.315 129.514C482.303 130.983 479.892 132.18 477.083 133.105C474.282 134.03 471.045 134.5 467.373 134.5Z" fill="#ED1C24"/>
<path d="M530.313 119.515V44.5H547V133.342L531.916 133.4L530.313 119.515ZM497 104.251V100.086C497 94.9911 497.437 90.5409 498.31 86.7213C499.221 82.909 500.568 79.7271 502.344 77.1832C504.128 74.6392 506.303 72.7477 508.877 71.516C511.489 70.2404 514.477 69.6026 517.841 69.6026C520.89 69.6026 523.562 70.3576 525.858 71.8606C528.198 73.3268 530.17 75.3871 531.796 78.0484C533.422 80.7097 534.724 83.8474 535.717 87.4764C536.703 91.0981 537.396 95.0718 537.795 99.3899V105.402C537.321 109.493 536.583 113.312 535.597 116.853C534.649 120.402 533.339 123.488 531.676 126.113C530.058 128.73 528.093 130.798 525.797 132.301C523.502 133.767 520.83 134.5 517.781 134.5C514.417 134.5 511.429 133.84 508.817 132.528C506.243 131.215 504.068 129.295 502.284 126.743C500.545 124.163 499.221 121.003 498.31 117.264C497.437 113.481 497 109.148 497 104.251ZM513.627 100.086V104.251C513.627 107.176 513.77 109.705 514.041 111.824C514.357 113.906 514.853 115.622 515.531 116.971C516.238 118.283 517.172 119.265 518.316 119.925C519.467 120.541 520.89 120.849 522.591 120.849C524.811 120.849 526.61 120.306 527.995 119.229C529.38 118.107 530.411 116.589 531.081 114.661C531.796 112.689 532.195 110.438 532.27 107.894V96.9632C532.195 94.8371 531.939 92.9311 531.503 91.2375C531.066 89.5367 530.449 88.0923 529.658 86.8972C528.868 85.7022 527.875 84.7786 526.693 84.1188C525.541 83.4663 524.194 83.1363 522.651 83.1363C520.988 83.1363 519.565 83.4663 518.376 84.1188C517.232 84.7786 516.321 85.7976 515.644 87.1833C514.974 88.5322 514.462 90.2917 514.101 92.4471C513.785 94.5732 513.627 97.1172 513.627 100.086Z" fill="#ED1C24"/>
<path d="M606 119.54V133.5H571.554V119.54H606ZM576.678 49.5V133.5H560V49.5H576.678Z" fill="#ED1C24"/>
<path d="M640.822 134.5C636.524 134.5 632.713 133.839 629.387 132.525C626.097 131.21 623.308 129.323 621.027 126.848C618.746 124.337 617.002 121.305 615.803 117.758C614.604 114.204 614 110.151 614 105.591V100.436C614 95.3398 614.581 90.8753 615.744 87.057C616.907 83.1946 618.547 79.949 620.674 77.3202C622.808 74.6988 625.421 72.7455 628.511 71.4679C631.646 70.1608 635.193 69.5 639.137 69.5C643.088 69.5 646.547 70.1608 649.527 71.4679C652.551 72.7455 655.046 74.6767 657.018 77.2614C658.99 79.8094 660.484 82.9817 661.484 86.7633C662.493 90.545 663 94.9507 663 99.9733V107.39H620.91V95.9714H647.032V94.5247C647.032 91.9767 646.76 89.8546 646.223 88.1511C645.678 86.4181 644.825 85.1258 643.669 84.274C642.507 83.4222 640.954 82.9963 639.019 82.9963C637.4 82.9963 636.024 83.3268 634.898 83.9803C633.78 84.6412 632.889 85.6618 632.227 87.057C631.572 88.4448 631.086 90.2585 630.777 92.4981C630.468 94.7009 630.314 97.3445 630.314 100.436V105.591C630.314 108.484 630.564 110.922 631.072 112.89C631.572 114.821 632.308 116.407 633.272 117.641C634.28 118.837 635.502 119.704 636.929 120.247C638.364 120.746 640.027 120.996 641.926 120.996C644.788 120.996 647.363 120.497 649.644 119.491C651.97 118.448 653.942 117.038 655.568 115.261L662.065 125.116C660.947 126.577 659.395 128.045 657.423 129.514C655.451 130.983 653.088 132.18 650.344 133.105C647.592 134.03 644.42 134.5 640.822 134.5Z" fill="#ED1C24"/>
<path d="M672 44.5H688.255V118.825L687.095 133.342H672V44.5ZM721 99.9691V104.075C721 109.163 720.594 113.598 719.774 117.374C718.999 121.157 717.773 124.317 716.104 126.861C714.472 129.405 712.374 131.318 709.812 132.586C707.249 133.862 704.221 134.5 700.728 134.5C697.582 134.5 694.879 133.767 692.627 132.301C690.374 130.798 688.469 128.73 686.918 126.113C685.404 123.451 684.163 120.343 683.188 116.802C682.258 113.21 681.579 109.302 681.15 105.057V98.9867C681.542 94.8224 682.199 90.9442 683.13 87.3592C684.104 83.7742 685.345 80.673 686.859 78.0484C688.373 75.3871 690.256 73.3268 692.508 71.8606C694.805 70.3576 697.501 69.6026 700.61 69.6026C704.184 69.6026 707.249 70.2624 709.812 71.5674C712.374 72.8431 714.472 74.7493 716.104 77.2932C717.773 79.8446 718.999 83.0191 719.774 86.8387C720.594 90.6144 721 94.9911 721 99.9691ZM704.746 104.075V99.9691C704.746 97.0732 704.627 94.588 704.398 92.5058C704.162 90.4237 703.734 88.6935 703.113 87.3005C702.493 85.9149 701.599 84.8738 700.433 84.1773C699.31 83.4882 697.811 83.1363 695.95 83.1363C694.281 83.1363 692.878 83.4663 691.755 84.1188C690.625 84.7346 689.658 85.6656 688.838 86.8972C688.063 88.0923 687.479 89.5219 687.095 91.1788C686.741 92.7991 686.549 94.588 686.512 96.5528V107.484C686.549 110.145 686.881 112.499 687.501 114.544C688.122 116.589 689.111 118.166 690.47 119.287C691.873 120.402 693.735 120.966 696.068 120.966C697.892 120.966 699.369 120.651 700.492 120.035C701.622 119.419 702.493 118.437 703.113 117.088C703.778 115.739 704.199 114.001 704.398 111.883C704.627 109.72 704.746 107.117 704.746 104.075Z" fill="#ED1C24"/>
<path d="M364.855 181.245H356.735V176.5H364.855C366.393 176.5 367.63 176.141 368.567 175.416C369.519 174.692 370.208 173.683 370.633 172.39C371.079 171.105 371.299 169.632 371.299 167.981C371.299 166.471 371.079 165.052 370.633 163.722C370.208 162.391 369.519 161.323 368.567 160.516C367.63 159.694 366.393 159.275 364.855 159.275H357.701V198.5H353V154.5H364.855C367.264 154.5 369.285 155.075 370.94 156.226C372.595 157.377 373.847 158.969 374.696 161.001C375.568 163.012 376 165.321 376 167.921C376 170.739 375.568 173.152 374.696 175.14C373.847 177.135 372.595 178.66 370.94 179.706C369.285 180.737 367.264 181.245 364.855 181.245Z" fill="#ED1C24"/>
<path d="M386.634 151.5V198.5H382V151.5H386.634ZM385.509 180.694L383.627 180.603C383.605 178.333 383.822 176.245 384.279 174.33C384.752 172.393 385.412 170.706 386.266 169.275C387.136 167.853 388.178 166.748 389.378 165.976C390.585 165.182 391.92 164.78 393.382 164.78C394.537 164.78 395.587 165.008 396.524 165.454C397.469 165.885 398.271 166.574 398.931 167.535C399.598 168.496 400.1 169.737 400.453 171.266C400.82 172.779 401 174.626 401 176.805V198.5H396.366V176.744C396.366 175.011 396.201 173.627 395.871 172.582C395.557 171.523 395.069 170.759 394.402 170.289C393.757 169.798 392.94 169.555 391.942 169.555C391.035 169.555 390.195 169.85 389.408 170.441C388.621 171.031 387.931 171.848 387.339 172.893C386.761 173.929 386.311 175.125 385.982 176.472C385.667 177.796 385.509 179.204 385.509 180.694Z" fill="#ED1C24"/>
<path d="M420.466 192.47V175.203C420.466 173.952 420.292 172.941 419.937 172.177C419.605 171.413 419.099 170.853 418.412 170.497C417.748 170.148 416.902 169.973 415.883 169.973C414.901 169.973 414.048 170.199 413.323 170.65C412.621 171.101 412.078 171.697 411.693 172.439C411.323 173.188 411.141 174.01 411.141 174.912H406.476C406.476 173.777 406.695 172.65 407.133 171.53C407.593 170.41 408.242 169.399 409.08 168.497C409.926 167.58 410.937 166.853 412.115 166.322C413.308 165.776 414.645 165.5 416.117 165.5C417.876 165.5 419.431 165.82 420.783 166.467C422.134 167.1 423.199 168.126 423.969 169.559C424.747 170.992 425.132 172.89 425.132 175.268V190.972C425.132 192.034 425.2 193.161 425.343 194.354C425.502 195.547 425.721 196.58 426 197.445V197.911H421.183C420.949 197.285 420.775 196.449 420.654 195.416C420.526 194.354 420.466 193.372 420.466 192.47ZM421.206 178.621L421.259 182.44H418.02C416.91 182.44 415.898 182.578 414.985 182.855C414.094 183.131 413.316 183.531 412.666 184.062C412.017 184.571 411.519 185.204 411.164 185.975C410.832 186.739 410.666 187.611 410.666 188.586C410.666 189.866 410.824 190.885 411.141 191.648C411.458 192.39 411.927 192.936 412.561 193.263C413.195 193.598 413.995 193.765 414.962 193.765C416.139 193.765 417.174 193.459 418.072 192.856C418.963 192.245 419.658 191.51 420.149 190.645C420.662 189.786 420.896 188.979 420.866 188.237L421.893 190.681C421.817 191.445 421.591 192.274 421.206 193.176C420.836 194.063 420.315 194.914 419.65 195.736C418.986 196.543 418.193 197.205 417.28 197.736C416.381 198.245 415.369 198.5 414.252 198.5C412.599 198.5 411.149 198.151 409.903 197.445C408.673 196.74 407.714 195.7 407.027 194.325C406.347 192.95 406 191.256 406 189.234C406 187.706 406.242 186.295 406.71 185C407.185 183.706 407.887 182.585 408.824 181.647C409.752 180.687 410.923 179.945 412.327 179.414C413.746 178.883 415.392 178.621 417.25 178.621H421.206Z" fill="#ED1C24"/>
<path d="M437.357 171.188V198.5H433V166.1H437.209L437.357 171.188ZM443.972 165.922L444 171.069C443.64 170.973 443.309 170.914 443.013 170.891C442.738 170.854 442.406 170.832 442.033 170.832C441.208 170.832 440.488 171.032 439.868 171.432C439.261 171.832 438.733 172.387 438.288 173.106C437.844 173.824 437.492 174.683 437.231 175.683C436.97 176.66 436.787 177.742 436.688 178.919L435.56 179.815C435.56 177.86 435.679 176.024 435.926 174.306C436.187 172.587 436.589 171.069 437.132 169.751C437.675 168.418 438.366 167.374 439.198 166.641C440.051 165.878 441.073 165.5 442.251 165.5C442.512 165.5 442.836 165.552 443.21 165.648C443.605 165.73 443.859 165.818 443.972 165.922Z" fill="#ED1C24"/>
<path d="M452.702 172.535V198.5H448V166.1H452.434L452.702 172.535ZM451.738 181.074L449.552 180.985C449.529 178.764 449.728 176.72 450.133 174.846C450.546 172.95 451.157 171.299 451.976 169.899C452.817 168.507 453.857 167.426 455.103 166.67C456.364 165.893 457.832 165.5 459.507 165.5C460.608 165.5 461.632 165.722 462.572 166.159C463.536 166.581 464.369 167.248 465.08 168.166C465.791 169.084 466.342 170.262 466.732 171.699C467.145 173.135 467.351 174.876 467.351 176.912V198.5H462.626V177.179C462.626 175.483 462.419 174.128 462.014 173.106C461.617 172.091 461.059 171.351 460.332 170.891C459.598 170.41 458.727 170.173 457.718 170.173C456.555 170.173 455.592 170.462 454.805 171.039C454.04 171.617 453.428 172.417 452.962 173.439C452.518 174.454 452.197 175.624 452.006 176.942C451.83 178.238 451.738 179.615 451.738 181.074ZM467.297 178.016L464.147 179.156C464.124 177.379 464.323 175.676 464.736 174.039C465.141 172.395 465.745 170.943 466.548 169.662C467.366 168.388 468.383 167.374 469.591 166.641C470.799 165.878 472.206 165.5 473.804 165.5C475.119 165.5 476.289 165.73 477.305 166.189C478.315 166.648 479.171 167.359 479.867 168.314C480.578 169.255 481.106 170.462 481.465 171.936C481.824 173.417 482 175.172 482 177.209V198.5H477.275V177.149C477.275 175.335 477.069 173.928 476.663 172.928C476.273 171.906 475.708 171.202 474.982 170.802C474.248 170.38 473.376 170.173 472.366 170.173C471.548 170.173 470.814 170.38 470.18 170.802C469.553 171.217 469.033 171.802 468.605 172.535C468.177 173.254 467.848 174.083 467.618 175.024C467.404 175.964 467.297 176.957 467.297 178.016Z" fill="#ED1C24"/>
<path d="M501.743 192.47V175.203C501.743 173.952 501.578 172.941 501.248 172.177C500.925 171.413 500.444 170.853 499.791 170.497C499.16 170.148 498.357 169.973 497.389 169.973C496.457 169.973 495.646 170.199 494.964 170.65C494.297 171.101 493.774 171.697 493.408 172.439C493.057 173.188 492.884 174.01 492.884 174.912H488.452C488.452 173.777 488.66 172.65 489.076 171.53C489.513 170.41 490.13 169.399 490.934 168.497C491.73 167.58 492.691 166.853 493.81 166.322C494.943 165.776 496.213 165.5 497.618 165.5C499.282 165.5 500.76 165.82 502.044 166.467C503.335 167.1 504.339 168.126 505.078 169.559C505.809 170.992 506.175 172.89 506.175 175.268V190.972C506.175 192.034 506.247 193.161 506.376 194.354C506.527 195.547 506.735 196.58 507 197.445V197.911H502.424C502.202 197.285 502.037 196.449 501.922 195.416C501.807 194.354 501.743 193.372 501.743 192.47ZM502.445 178.621L502.496 182.44H499.419C498.364 182.44 497.41 182.578 496.543 182.855C495.689 183.131 494.95 183.531 494.333 184.062C493.717 184.571 493.243 185.204 492.906 185.975C492.591 186.739 492.433 187.611 492.433 188.586C492.433 189.866 492.583 190.885 492.884 191.648C493.186 192.39 493.638 192.936 494.233 193.263C494.835 193.598 495.596 193.765 496.514 193.765C497.633 193.765 498.615 193.459 499.469 192.856C500.322 192.245 500.975 191.51 501.448 190.645C501.929 189.786 502.158 188.979 502.123 188.237L503.098 190.681C503.034 191.445 502.811 192.274 502.445 193.176C502.094 194.063 501.606 194.914 500.968 195.736C500.337 196.543 499.583 197.205 498.716 197.736C497.869 198.245 496.908 198.5 495.84 198.5C494.269 198.5 492.892 198.151 491.708 197.445C490.539 196.74 489.628 195.7 488.976 194.325C488.33 192.95 488 191.256 488 189.234C488 187.706 488.23 186.295 488.682 185C489.126 183.706 489.793 182.585 490.683 181.647C491.565 180.687 492.677 179.945 494.011 179.414C495.359 178.883 496.923 178.621 498.694 178.621H502.445Z" fill="#ED1C24"/>
<path d="M522.583 194.063C523.49 194.063 524.316 193.852 525.053 193.445C525.805 193.008 526.425 192.346 526.904 191.445C527.383 190.521 527.664 189.328 527.73 187.851H532C531.934 189.968 531.462 191.837 530.584 193.445C529.729 195.03 528.593 196.274 527.192 197.176C525.798 198.064 524.264 198.5 522.583 198.5C520.783 198.5 519.212 198.165 517.87 197.503C516.55 196.834 515.451 195.874 514.574 194.616C513.718 193.343 513.077 191.808 512.649 190.004C512.221 188.179 512 186.106 512 183.793V180.207C512 177.894 512.221 175.836 512.649 174.032C513.077 172.206 513.718 170.664 514.574 169.413C515.451 168.14 516.55 167.166 517.87 166.497C519.212 165.835 520.783 165.5 522.583 165.5C524.471 165.5 526.1 165.958 527.472 166.882C528.866 167.784 529.942 169.1 530.717 170.824C531.506 172.526 531.934 174.599 532 177.029H527.73C527.664 175.465 527.413 174.155 526.985 173.115C526.557 172.061 525.967 171.275 525.23 170.766C524.493 170.235 523.615 169.973 522.583 169.973C521.381 169.973 520.385 170.213 519.596 170.708C518.821 171.173 518.217 171.864 517.767 172.766C517.324 173.668 517.007 174.745 516.815 176.003C516.646 177.254 516.558 178.658 516.558 180.207V183.793C516.558 185.342 516.646 186.753 516.815 188.033C517.007 189.284 517.317 190.361 517.745 191.263C518.187 192.165 518.807 192.863 519.596 193.358C520.385 193.823 521.381 194.063 522.583 194.063Z" fill="#ED1C24"/>
<path d="M543.524 194.874L549.409 165.5H554L545.28 203.329C545.07 204.13 544.784 204.999 544.427 205.928C544.084 206.879 543.643 207.778 543.111 208.624C542.572 209.478 541.928 210.16 541.179 210.684C540.431 211.23 539.549 211.5 538.541 211.5C538.233 211.5 537.834 211.44 537.344 211.32C536.869 211.2 536.533 211.103 536.316 211.021V206.475C536.414 206.497 536.568 206.52 536.785 206.535C536.995 206.58 537.148 206.594 537.246 206.594C538.093 206.594 538.807 206.422 539.395 206.085C539.997 205.763 540.508 205.201 540.934 204.415C541.354 203.651 541.718 202.588 542.005 201.24L543.524 194.874ZM539.71 165.5L544.966 190.942L546.085 196.843L543.013 198.903L535 165.5H539.71Z" fill="#ED1C24"/>
<path d="M585.057 188.088C585.057 187.088 584.946 186.206 584.732 185.441C584.518 184.654 584.142 183.949 583.603 183.324C583.065 182.691 582.312 182.096 581.346 181.529C580.379 180.956 579.147 180.382 577.664 179.794C576.048 179.162 574.588 178.471 573.282 177.706C571.976 176.919 570.854 176.029 569.925 175.029C569.01 174.029 568.302 172.882 567.8 171.588C567.298 170.294 567.048 168.809 567.048 167.147C567.048 165.478 567.306 163.941 567.83 162.529C568.368 161.118 569.121 159.89 570.087 158.853C571.068 157.794 572.256 156.971 573.636 156.382C575.008 155.794 576.55 155.5 578.255 155.5C580.8 155.5 582.939 156.118 584.681 157.353C586.429 158.566 587.757 160.162 588.657 162.147C589.55 164.103 590 166.206 590 168.441H585.057C585.057 166.831 584.813 165.412 584.326 164.176C583.862 162.919 583.124 161.941 582.12 161.235C581.139 160.507 579.848 160.147 578.255 160.147C576.823 160.147 575.635 160.449 574.706 161.059C573.791 161.662 573.112 162.485 572.662 163.53C572.234 164.566 572.02 165.75 572.02 167.088C572.02 167.985 572.16 168.809 572.448 169.559C572.736 170.279 573.178 170.956 573.769 171.588C574.374 172.213 575.126 172.794 576.026 173.323C576.941 173.853 578.011 174.36 579.251 174.853C581.169 175.537 582.806 176.302 584.164 177.147C585.529 177.985 586.636 178.941 587.499 180C588.362 181.037 588.989 182.221 589.38 183.559C589.794 184.868 590 186.36 590 188.029C590 189.772 589.727 191.353 589.188 192.765C588.672 194.177 587.912 195.382 586.909 196.382C585.905 197.382 584.695 198.154 583.279 198.706C581.862 199.235 580.269 199.5 578.498 199.5C576.956 199.5 575.443 199.221 573.953 198.676C572.485 198.125 571.149 197.301 569.947 196.206C568.752 195.103 567.793 193.75 567.077 192.147C566.361 190.515 566 188.632 566 186.5H570.943C570.943 187.971 571.142 189.235 571.533 190.294C571.932 191.331 572.478 192.191 573.179 192.882C573.872 193.566 574.669 194.074 575.569 194.412C576.484 194.721 577.458 194.882 578.498 194.882C579.929 194.882 581.132 194.603 582.098 194.059C583.08 193.507 583.817 192.721 584.304 191.706C584.806 190.684 585.057 189.478 585.057 188.088Z" fill="#ED1C24"/>
<path d="M606.259 199.5C604.681 199.5 603.263 199.213 601.992 198.647C600.728 198.074 599.645 197.213 598.755 196.059C597.859 194.882 597.177 193.397 596.709 191.618C596.234 189.831 596 187.721 596 185.294V181.706C596 178.897 596.267 176.529 596.802 174.588C597.357 172.647 598.1 171.088 599.023 169.912C599.946 168.713 600.996 167.853 602.166 167.324C603.336 166.772 604.534 166.5 605.771 166.5C607.429 166.5 608.841 166.824 610.011 167.471C611.175 168.118 612.131 169.074 612.86 170.353C613.589 171.625 614.124 173.191 614.465 175.059C614.826 176.919 615 179.066 615 181.5V184.529H598.535V180.088H610.693V179.353C610.626 177.706 610.439 176.25 610.131 175C609.837 173.743 609.349 172.765 608.667 172.059C607.985 171.331 607.022 170.971 605.771 170.971C604.975 170.971 604.233 171.132 603.551 171.471C602.889 171.779 602.313 172.338 601.825 173.147C601.35 173.926 600.982 175.015 600.701 176.412C600.441 177.802 600.313 179.566 600.313 181.706V185.294C600.313 187 600.441 188.471 600.701 189.706C600.982 190.919 601.377 191.927 601.899 192.735C602.434 193.515 603.082 194.103 603.845 194.5C604.627 194.868 605.51 195.059 606.5 195.059C607.944 195.059 609.142 194.721 610.085 194.059C611.021 193.368 611.844 192.5 612.539 191.441L614.806 194.706C614.338 195.507 613.716 196.279 612.953 197.029C612.211 197.75 611.282 198.353 610.178 198.824C609.088 199.272 607.784 199.5 606.259 199.5Z" fill="#ED1C24"/>
<path d="M626.747 172.19V199.5H622V167.099H626.592L626.747 172.19ZM633.97 166.919L634 172.07C633.602 171.965 633.248 171.905 632.924 171.89C632.622 171.845 632.261 171.83 631.855 171.83C630.956 171.83 630.167 172.025 629.489 172.429C628.825 172.826 628.251 173.388 627.772 174.106C627.285 174.825 626.902 175.678 626.614 176.682C626.327 177.655 626.135 178.733 626.025 179.916L624.794 180.814C624.794 178.853 624.926 177.018 625.192 175.304C625.479 173.582 625.922 172.07 626.511 170.752C627.101 169.412 627.852 168.372 628.766 167.638C629.695 166.874 630.801 166.5 632.091 166.5C632.378 166.5 632.732 166.545 633.138 166.65C633.573 166.725 633.845 166.814 633.97 166.919Z" fill="#ED1C24"/>
<path d="M646.893 194.561L653.146 167.5H658L649.342 199.5H646.19L646.893 194.561ZM641.854 167.5L648.373 194.709L648.891 199.5H645.761L637 167.5H641.854Z" fill="#ED1C24"/>
<path d="M667.625 167.245V199.5H663.252V167.245H667.625ZM663 158.69C663 157.795 663.212 157.035 663.628 156.424C664.037 155.806 664.658 155.5 665.49 155.5C666.315 155.5 666.936 155.806 667.352 156.424C667.782 157.035 668 157.795 668 158.69C668 159.539 667.782 160.277 667.352 160.896C666.936 161.492 666.315 161.79 665.49 161.79C664.658 161.79 664.037 161.492 663.628 160.896C663.212 160.277 663 159.539 663 158.69Z" fill="#ED1C24"/>
<path d="M685.108 195.059C686.058 195.059 686.927 194.853 687.698 194.441C688.492 194.007 689.145 193.338 689.65 192.441C690.154 191.515 690.437 190.324 690.511 188.853H695C694.926 190.971 694.428 192.831 693.508 194.441C692.61 196.029 691.423 197.272 689.947 198.176C688.485 199.059 686.874 199.5 685.108 199.5C683.216 199.5 681.569 199.162 680.159 198.5C678.771 197.831 677.621 196.868 676.701 195.618C675.803 194.338 675.12 192.801 674.675 191C674.222 189.176 674 187.103 674 184.794V181.206C674 178.89 674.222 176.831 674.675 175.029C675.12 173.206 675.803 171.662 676.701 170.412C677.621 169.132 678.771 168.162 680.159 167.5C681.569 166.831 683.216 166.5 685.108 166.5C687.09 166.5 688.796 166.956 690.243 167.882C691.698 168.779 692.833 170.096 693.65 171.824C694.473 173.53 694.926 175.596 695 178.03H690.511C690.437 176.456 690.177 175.154 689.731 174.118C689.279 173.059 688.663 172.272 687.891 171.765C687.112 171.235 686.184 170.971 685.108 170.971C683.847 170.971 682.801 171.213 681.969 171.706C681.161 172.177 680.522 172.86 680.055 173.765C679.58 174.662 679.253 175.743 679.053 177C678.875 178.25 678.779 179.654 678.779 181.206V184.794C678.779 186.338 678.875 187.75 679.053 189.029C679.253 190.279 679.573 191.36 680.025 192.265C680.493 193.162 681.138 193.86 681.969 194.353C682.801 194.824 683.847 195.059 685.108 195.059Z" fill="#ED1C24"/>
<path d="M710.332 199.5C708.595 199.5 707.02 199.213 705.623 198.647C704.219 198.074 703.028 197.213 702.038 196.059C701.055 194.882 700.301 193.397 699.776 191.618C699.259 189.831 699 187.721 699 185.294V181.706C699 178.897 699.296 176.529 699.887 174.588C700.493 172.647 701.313 171.088 702.333 169.912C703.361 168.713 704.514 167.853 705.808 167.324C707.101 166.772 708.432 166.5 709.792 166.5C711.625 166.5 713.185 166.824 714.478 167.471C715.772 168.118 716.822 169.074 717.627 170.353C718.433 171.625 719.031 173.191 719.408 175.059C719.8 176.919 720 179.066 720 181.5V184.529H701.794V180.088H715.232V179.353C715.158 177.706 714.951 176.25 714.611 175C714.294 173.743 713.754 172.765 713 172.059C712.246 171.331 711.174 170.971 709.792 170.971C708.912 170.971 708.099 171.132 707.345 171.471C706.606 171.779 705.971 172.338 705.431 173.147C704.914 173.926 704.499 175.015 704.196 176.412C703.908 177.802 703.76 179.566 703.76 181.706V185.294C703.76 187 703.908 188.471 704.196 189.706C704.499 190.919 704.936 191.927 705.512 192.735C706.103 193.515 706.821 194.103 707.663 194.5C708.528 194.868 709.504 195.059 710.605 195.059C712.202 195.059 713.517 194.721 714.559 194.059C715.602 193.368 716.504 192.5 717.28 191.441L719.786 194.706C719.261 195.507 718.581 196.279 717.738 197.029C716.91 197.75 715.89 198.353 714.671 198.824C713.466 199.272 712.017 199.5 710.332 199.5Z" fill="#ED1C24"/>
</svg>
