<svg width="900" height="981" viewBox="0 0 900 981" fill="none" xmlns="http://www.w3.org/2000/svg">
<mask id="path-1-inside-1_643_145" fill="white">
<path d="M154.996 836.81H172.379L209.586 952.73L246.695 836.81H264.078L216.324 979H202.652L154.996 836.81ZM149.332 836.81H164.566L167.203 923.53V979H149.332V836.81ZM254.41 836.81H269.645V979H251.773V923.53L254.41 836.81ZM335.95 980.95C329.64 980.95 323.94 980.01 318.863 978.12C313.785 976.23 309.456 973.37 305.875 969.53C302.294 965.62 299.56 960.71 297.672 954.78C295.784 948.86 294.84 941.86 294.84 933.79V921.87C294.84 912.56 295.914 904.68 298.062 898.24C300.276 891.79 303.238 886.62 306.949 882.71C310.66 878.74 314.859 875.88 319.547 874.12C324.23 872.29 329.05 871.38 334 871.38C340.64 871.38 346.3 872.46 350.99 874.61C355.68 876.75 359.49 879.94 362.42 884.18C365.35 888.41 367.5 893.62 368.86 899.8C370.3 905.99 371.01 913.11 371.01 921.19V931.25H304.996V916.5H353.73V914.06C353.47 908.59 352.72 903.77 351.48 899.61C350.31 895.44 348.36 892.18 345.62 889.84C342.89 887.43 339.01 886.23 334 886.23C330.81 886.23 327.85 886.78 325.11 887.89C322.444 888.93 320.133 890.78 318.18 893.45C316.292 896.06 314.794 899.67 313.688 904.29C312.646 908.92 312.125 914.77 312.125 921.87V933.79C312.125 939.45 312.646 944.33 313.688 948.43C314.794 952.47 316.389 955.82 318.473 958.49C320.621 961.1 323.23 963.05 326.29 964.35C329.41 965.59 332.96 966.21 336.93 966.21C342.72 966.21 347.51 965.1 351.29 962.89C355.06 960.61 358.35 957.71 361.15 954.2L370.23 965.04C368.34 967.7 365.87 970.28 362.81 972.75C359.81 975.16 356.1 977.14 351.68 978.71C347.31 980.2 342.07 980.95 335.95 980.95ZM447.28 958.49V829H464.47V979H448.75L447.28 958.49ZM388.2 931.25V921.38C388.2 912.66 389.05 905.17 390.74 898.92C392.43 892.61 394.84 887.43 397.96 883.39C401.09 879.29 404.83 876.27 409.2 874.31C413.56 872.36 418.38 871.38 423.65 871.38C429.12 871.38 433.8 872.49 437.71 874.7C441.68 876.92 445 880.14 447.67 884.37C450.34 888.54 452.42 893.62 453.92 899.61C455.48 905.53 456.53 912.24 457.05 919.72V932.91C456.46 940.33 455.39 947 453.82 952.93C452.33 958.85 450.24 963.9 447.57 968.06C444.9 972.23 441.58 975.42 437.61 977.63C433.64 979.85 428.92 980.95 423.45 980.95C418.24 980.95 413.49 979.94 409.2 977.93C404.9 975.84 401.15 972.75 397.96 968.65C394.84 964.48 392.43 959.31 390.74 953.12C389.05 946.87 388.2 939.58 388.2 931.25ZM405.48 921.38V931.25C405.48 937.11 405.91 942.22 406.75 946.58C407.6 950.88 408.93 954.46 410.76 957.32C412.58 960.12 414.89 962.2 417.69 963.57C420.56 964.94 423.97 965.62 427.95 965.62C432.76 965.62 436.7 964.45 439.76 962.11C442.82 959.76 445.26 956.67 447.09 952.83C448.97 948.92 450.47 944.72 451.58 940.23V912.5C450.93 909.18 449.98 905.99 448.75 902.93C447.51 899.8 445.95 897.03 444.06 894.62C442.24 892.15 439.99 890.2 437.32 888.77C434.72 887.33 431.66 886.62 428.14 886.62C424.17 886.62 420.72 887.33 417.79 888.77C414.92 890.2 412.58 892.35 410.76 895.21C409 898.08 407.67 901.69 406.75 906.05C405.91 910.41 405.48 915.52 405.48 921.38ZM567.2 963.67V979H508.22V963.67H567.2ZM511.44 836.81V979H493.47V836.81H511.44ZM624.04 980.95C617.72 980.95 612.03 980.01 606.95 978.12C601.87 976.23 597.54 973.37 593.96 969.53C590.38 965.62 587.65 960.71 585.76 954.78C583.87 948.86 582.93 941.86 582.93 933.79V921.87C582.93 912.56 584 904.68 586.15 898.24C588.36 891.79 591.32 886.62 595.04 882.71C598.75 878.74 602.95 875.88 607.63 874.12C612.32 872.29 617.14 871.38 622.09 871.38C628.73 871.38 634.39 872.46 639.08 874.61C643.77 876.75 647.57 879.94 650.5 884.18C653.43 888.41 655.58 893.62 656.95 899.8C658.38 905.99 659.1 913.11 659.1 921.19V931.25H593.08V916.5H641.81V914.06C641.55 908.59 640.8 903.77 639.57 899.61C638.39 895.44 636.44 892.18 633.71 889.84C630.97 887.43 627.1 886.23 622.09 886.23C618.9 886.23 615.93 886.78 613.2 887.89C610.53 888.93 608.22 890.78 606.27 893.45C604.38 896.06 602.88 899.67 601.77 904.29C600.73 908.92 600.21 914.77 600.21 921.87V933.79C600.21 939.45 600.73 944.33 601.77 948.43C602.88 952.47 604.48 955.82 606.56 958.49C608.71 961.1 611.31 963.05 614.37 964.35C617.5 965.59 621.04 966.21 625.02 966.21C630.81 966.21 635.6 965.1 639.37 962.89C643.15 960.61 646.43 957.71 649.23 954.2L658.32 965.04C656.43 967.7 653.95 970.28 650.89 972.75C647.9 975.16 644.19 977.14 639.76 978.71C635.4 980.2 630.16 980.95 624.04 980.95ZM680 829H697.28V958.49L695.82 979H680V829ZM756.56 921.38V931.25C756.56 939.58 755.78 946.87 754.21 953.12C752.72 959.31 750.47 964.48 747.48 968.65C744.48 972.75 740.84 975.84 736.54 977.93C732.24 979.94 727.33 980.95 721.79 980.95C716.32 980.95 711.6 979.85 707.63 977.63C703.66 975.42 700.34 972.23 697.67 968.06C695 963.9 692.89 958.85 691.32 952.93C689.83 947 688.79 940.33 688.2 932.91V919.72C688.79 912.24 689.83 905.53 691.32 899.61C692.82 893.62 694.9 888.54 697.57 884.37C700.24 880.14 703.56 876.92 707.54 874.7C711.51 872.49 716.23 871.38 721.7 871.38C727.29 871.38 732.24 872.36 736.54 874.31C740.9 876.27 744.55 879.29 747.48 883.39C750.47 887.43 752.72 892.61 754.21 898.92C755.78 905.17 756.56 912.66 756.56 921.38ZM739.27 931.25V921.38C739.27 915.52 738.88 910.41 738.1 906.05C737.39 901.69 736.18 898.08 734.49 895.21C732.8 892.35 730.52 890.2 727.65 888.77C724.85 887.33 721.37 886.62 717.2 886.62C713.69 886.62 710.6 887.33 707.93 888.77C705.32 890.2 703.08 892.15 701.19 894.62C699.3 897.03 697.74 899.8 696.5 902.93C695.26 905.99 694.35 909.18 693.77 912.5V940.23C694.61 944.46 695.95 948.53 697.77 952.44C699.66 956.28 702.2 959.44 705.39 961.91C708.58 964.38 712.55 965.62 717.3 965.62C721.27 965.62 724.62 964.94 727.36 963.57C730.16 962.2 732.44 960.12 734.2 957.32C735.95 954.46 737.22 950.88 738 946.58C738.85 942.22 739.27 937.11 739.27 931.25Z"/>
</mask>
<path d="M154.996 836.81H172.379L209.586 952.73L246.695 836.81H264.078L216.324 979H202.652L154.996 836.81ZM149.332 836.81H164.566L167.203 923.53V979H149.332V836.81ZM254.41 836.81H269.645V979H251.773V923.53L254.41 836.81ZM335.95 980.95C329.64 980.95 323.94 980.01 318.863 978.12C313.785 976.23 309.456 973.37 305.875 969.53C302.294 965.62 299.56 960.71 297.672 954.78C295.784 948.86 294.84 941.86 294.84 933.79V921.87C294.84 912.56 295.914 904.68 298.062 898.24C300.276 891.79 303.238 886.62 306.949 882.71C310.66 878.74 314.859 875.88 319.547 874.12C324.23 872.29 329.05 871.38 334 871.38C340.64 871.38 346.3 872.46 350.99 874.61C355.68 876.75 359.49 879.94 362.42 884.18C365.35 888.41 367.5 893.62 368.86 899.8C370.3 905.99 371.01 913.11 371.01 921.19V931.25H304.996V916.5H353.73V914.06C353.47 908.59 352.72 903.77 351.48 899.61C350.31 895.44 348.36 892.18 345.62 889.84C342.89 887.43 339.01 886.23 334 886.23C330.81 886.23 327.85 886.78 325.11 887.89C322.444 888.93 320.133 890.78 318.18 893.45C316.292 896.06 314.794 899.67 313.688 904.29C312.646 908.92 312.125 914.77 312.125 921.87V933.79C312.125 939.45 312.646 944.33 313.688 948.43C314.794 952.47 316.389 955.82 318.473 958.49C320.621 961.1 323.23 963.05 326.29 964.35C329.41 965.59 332.96 966.21 336.93 966.21C342.72 966.21 347.51 965.1 351.29 962.89C355.06 960.61 358.35 957.71 361.15 954.2L370.23 965.04C368.34 967.7 365.87 970.28 362.81 972.75C359.81 975.16 356.1 977.14 351.68 978.71C347.31 980.2 342.07 980.95 335.95 980.95ZM447.28 958.49V829H464.47V979H448.75L447.28 958.49ZM388.2 931.25V921.38C388.2 912.66 389.05 905.17 390.74 898.92C392.43 892.61 394.84 887.43 397.96 883.39C401.09 879.29 404.83 876.27 409.2 874.31C413.56 872.36 418.38 871.38 423.65 871.38C429.12 871.38 433.8 872.49 437.71 874.7C441.68 876.92 445 880.14 447.67 884.37C450.34 888.54 452.42 893.62 453.92 899.61C455.48 905.53 456.53 912.24 457.05 919.72V932.91C456.46 940.33 455.39 947 453.82 952.93C452.33 958.85 450.24 963.9 447.57 968.06C444.9 972.23 441.58 975.42 437.61 977.63C433.64 979.85 428.92 980.95 423.45 980.95C418.24 980.95 413.49 979.94 409.2 977.93C404.9 975.84 401.15 972.75 397.96 968.65C394.84 964.48 392.43 959.31 390.74 953.12C389.05 946.87 388.2 939.58 388.2 931.25ZM405.48 921.38V931.25C405.48 937.11 405.91 942.22 406.75 946.58C407.6 950.88 408.93 954.46 410.76 957.32C412.58 960.12 414.89 962.2 417.69 963.57C420.56 964.94 423.97 965.62 427.95 965.62C432.76 965.62 436.7 964.45 439.76 962.11C442.82 959.76 445.26 956.67 447.09 952.83C448.97 948.92 450.47 944.72 451.58 940.23V912.5C450.93 909.18 449.98 905.99 448.75 902.93C447.51 899.8 445.95 897.03 444.06 894.62C442.24 892.15 439.99 890.2 437.32 888.77C434.72 887.33 431.66 886.62 428.14 886.62C424.17 886.62 420.72 887.33 417.79 888.77C414.92 890.2 412.58 892.35 410.76 895.21C409 898.08 407.67 901.69 406.75 906.05C405.91 910.41 405.48 915.52 405.48 921.38ZM567.2 963.67V979H508.22V963.67H567.2ZM511.44 836.81V979H493.47V836.81H511.44ZM624.04 980.95C617.72 980.95 612.03 980.01 606.95 978.12C601.87 976.23 597.54 973.37 593.96 969.53C590.38 965.62 587.65 960.71 585.76 954.78C583.87 948.86 582.93 941.86 582.93 933.79V921.87C582.93 912.56 584 904.68 586.15 898.24C588.36 891.79 591.32 886.62 595.04 882.71C598.75 878.74 602.95 875.88 607.63 874.12C612.32 872.29 617.14 871.38 622.09 871.38C628.73 871.38 634.39 872.46 639.08 874.61C643.77 876.75 647.57 879.94 650.5 884.18C653.43 888.41 655.58 893.62 656.95 899.8C658.38 905.99 659.1 913.11 659.1 921.19V931.25H593.08V916.5H641.81V914.06C641.55 908.59 640.8 903.77 639.57 899.61C638.39 895.44 636.44 892.18 633.71 889.84C630.97 887.43 627.1 886.23 622.09 886.23C618.9 886.23 615.93 886.78 613.2 887.89C610.53 888.93 608.22 890.78 606.27 893.45C604.38 896.06 602.88 899.67 601.77 904.29C600.73 908.92 600.21 914.77 600.21 921.87V933.79C600.21 939.45 600.73 944.33 601.77 948.43C602.88 952.47 604.48 955.82 606.56 958.49C608.71 961.1 611.31 963.05 614.37 964.35C617.5 965.59 621.04 966.21 625.02 966.21C630.81 966.21 635.6 965.1 639.37 962.89C643.15 960.61 646.43 957.71 649.23 954.2L658.32 965.04C656.43 967.7 653.95 970.28 650.89 972.75C647.9 975.16 644.19 977.14 639.76 978.71C635.4 980.2 630.16 980.95 624.04 980.95ZM680 829H697.28V958.49L695.82 979H680V829ZM756.56 921.38V931.25C756.56 939.58 755.78 946.87 754.21 953.12C752.72 959.31 750.47 964.48 747.48 968.65C744.48 972.75 740.84 975.84 736.54 977.93C732.24 979.94 727.33 980.95 721.79 980.95C716.32 980.95 711.6 979.85 707.63 977.63C703.66 975.42 700.34 972.23 697.67 968.06C695 963.9 692.89 958.85 691.32 952.93C689.83 947 688.79 940.33 688.2 932.91V919.72C688.79 912.24 689.83 905.53 691.32 899.61C692.82 893.62 694.9 888.54 697.57 884.37C700.24 880.14 703.56 876.92 707.54 874.7C711.51 872.49 716.23 871.38 721.7 871.38C727.29 871.38 732.24 872.36 736.54 874.31C740.9 876.27 744.55 879.29 747.48 883.39C750.47 887.43 752.72 892.61 754.21 898.92C755.78 905.17 756.56 912.66 756.56 921.38ZM739.27 931.25V921.38C739.27 915.52 738.88 910.41 738.1 906.05C737.39 901.69 736.18 898.08 734.49 895.21C732.8 892.35 730.52 890.2 727.65 888.77C724.85 887.33 721.37 886.62 717.2 886.62C713.69 886.62 710.6 887.33 707.93 888.77C705.32 890.2 703.08 892.15 701.19 894.62C699.3 897.03 697.74 899.8 696.5 902.93C695.26 905.99 694.35 909.18 693.77 912.5V940.23C694.61 944.46 695.95 948.53 697.77 952.44C699.66 956.28 702.2 959.44 705.39 961.91C708.58 964.38 712.55 965.62 717.3 965.62C721.27 965.62 724.62 964.94 727.36 963.57C730.16 962.2 732.44 960.12 734.2 957.32C735.95 954.46 737.22 950.88 738 946.58C738.85 942.22 739.27 937.11 739.27 931.25Z" fill="black" stroke="black" stroke-width="2" mask="url(#path-1-inside-1_643_145)"/>
<path d="M5 509.464V595.296V751H895V508.377V383H725V504C725 556.467 682.47 599 630 599C577.53 599 535 556.467 535 504V383H365V504C365 556.467 322.467 599 270 599C217.533 599 175 556.467 175 504V383H81H5V414.94V509.464Z" stroke="#FED141" stroke-width="10"/>
<path d="M0.5 176.456V110.389V100C0.5 45.048 45.048 0.5 100 0.5H800C854.95 0.5 899.5 45.048 899.5 100V177.292V277.646V377.5H720.5V198C720.5 148.018 679.98 107.5 630 107.5C580.02 107.5 539.5 148.018 539.5 198V377.5H360.5V198C360.5 148.018 319.982 107.5 270 107.5C220.018 107.5 179.5 148.018 179.5 198V377.5H90H0.5V249.212V176.456Z" fill="#FED141" stroke="#FED141"/>
<path d="M361.5 362.243V506C361.5 557.086 320.086 598.5 269 598.5C217.914 598.5 176.5 557.086 176.5 506V205C176.5 153.914 217.914 112.5 269 112.5C320.086 112.5 361.5 153.914 361.5 205V362.243Z" stroke="black" stroke-width="13"/>
<path d="M721.5 362.243V506C721.5 557.086 680.09 598.5 629 598.5C577.91 598.5 536.5 557.086 536.5 506V205C536.5 153.914 577.91 112.5 629 112.5C680.09 112.5 721.5 153.914 721.5 205V362.243Z" stroke="black" stroke-width="13"/>
<path d="M764 478.986V493.184C764 542.337 724.15 582.184 675 582.184C625.85 582.184 586 542.337 586 493.184V370H764V478.986Z" fill="#00A651" stroke="#00A651" stroke-width="2"/>
<path d="M404 478.986V493.184C404 542.337 364.15 582.184 315 582.184C265.847 582.184 226 542.337 226 493.184V370H404V478.986Z" fill="#00A651" stroke="#00A651" stroke-width="2"/>
</svg>
